<svg width="96" height="96" viewBox="0 0 96 96" fill="none" xmlns="http://www.w3.org/2000/svg">
<path d="M82.2 16.5H54.6L48.3 29.1H12.9V41.1H1.5L12.9 79.5H88.5V16.5H82.2ZM60.6 22.8H81.9V29.1H57.6L60.6 22.8ZM77.1 41.1H19.8V35.4H82.2V58.278L77.1 41.1Z" fill="#7BC0DB"/>
<path d="M93 78L67.287 93L41.571 78V48L67.287 33L93 48V78Z" fill="black"/>
<path d="M46.8721 51.213L67.2871 63L87.6991 51.213L67.2871 39.429L46.8721 51.213Z" fill="#0084C1"/>
<path d="M46.8721 51.213V74.787L67.2871 86.571V63L46.8721 51.213Z" fill="#82EDDF"/>
<path d="M67.2871 86.571V63L87.6991 51.213V74.787L67.2871 86.571Z" fill="#00D3B9"/>
</svg>
