<svg width="92" height="96" viewBox="0 0 92 96" fill="none" xmlns="http://www.w3.org/2000/svg">
<path d="M13.1055 77.457L24.9217 1.8465C24.9925 1.39464 25.2034 0.97642 25.5248 0.650928C25.8461 0.325436 26.2615 0.109118 26.7125 0.0325284C27.1634 -0.0440615 27.627 0.0229474 28.0377 0.224091C28.4485 0.425234 28.7857 0.750345 29.0017 1.1535L41.2222 23.946L46.0927 14.6715C46.2779 14.3197 46.5557 14.0252 46.896 13.8197C47.2364 13.6142 47.6264 13.5057 48.024 13.5057C48.4215 13.5057 48.8115 13.6142 49.1519 13.8197C49.4923 14.0252 49.77 14.3197 49.9552 14.6715L82.9327 77.457H13.1055Z" fill="#FFA000"/>
<path d="M53.9272 48.0037L41.2162 23.9348L13.1055 77.457L53.9272 48.0037Z" fill="#F57C00"/>
<path d="M82.9327 77.457L73.8825 21.453C73.8156 21.0582 73.6414 20.6895 73.3789 20.3871C73.1165 20.0847 72.7759 19.8603 72.3945 19.7385C72.0132 19.617 71.6058 19.6027 71.2169 19.6972C70.828 19.7916 70.4726 19.9912 70.1895 20.274L13.1055 77.4563L44.6917 95.1698C45.6672 95.7143 46.7658 96.0001 47.883 96.0001C49.0001 96.0001 50.0987 95.7143 51.0742 95.1698L82.9327 77.457Z" fill="#FFCA28"/>
<path d="M73.8824 21.453C73.8155 21.0582 73.6413 20.6894 73.3789 20.387C73.1164 20.0847 72.7758 19.8603 72.3944 19.7385C72.0131 19.6169 71.6058 19.6025 71.2169 19.6968C70.8281 19.7911 70.4726 19.9905 70.1894 20.2732L58.8591 31.6335L49.9499 14.6715C49.7647 14.3197 49.4869 14.0252 49.1466 13.8197C48.8062 13.6142 48.4162 13.5056 48.0186 13.5056C47.6211 13.5056 47.2311 13.6142 46.8907 13.8197C46.5504 14.0252 46.2726 14.3197 46.0874 14.6715L41.2169 23.9452L28.9964 1.15349C28.7801 0.749777 28.4423 0.424328 28.0308 0.22323C27.6194 0.0221325 27.155 -0.0444214 26.7036 0.0329928C26.2525 0.110386 25.8372 0.327635 25.5163 0.654016C25.1955 0.980398 24.9853 1.39939 24.9156 1.85174L13.1054 77.457H13.0671L13.1046 77.5005L13.4159 77.6535L70.1729 20.8305C70.4559 20.5462 70.8119 20.3454 71.2016 20.2502C71.5913 20.155 71.9997 20.169 72.382 20.2908C72.7642 20.4125 73.1055 20.6373 73.3684 20.9404C73.6312 21.2435 73.8054 21.6131 73.8719 22.0087L82.8456 77.511L82.9326 77.4562L73.8824 21.453ZM13.2089 77.3535L24.9209 2.38649C24.9905 1.9339 25.2007 1.51466 25.5217 1.18812C25.8427 0.861583 26.2583 0.644287 26.7096 0.566993C27.1611 0.489644 27.6255 0.55631 28.037 0.757546C28.4485 0.958783 28.7862 1.28439 29.0024 1.68824L41.2214 24.4807L46.0926 15.2062C46.2778 14.8544 46.5556 14.5599 46.896 14.3545C47.2363 14.149 47.6263 14.0404 48.0239 14.0404C48.4215 14.0404 48.8115 14.149 49.1518 14.3545C49.4922 14.5599 49.77 14.8544 49.9551 15.2062L58.6836 31.8075L13.2074 77.3535H13.2089Z" fill="white" fill-opacity="0.2"/>
<path opacity="0.2" d="M51.0743 94.635C50.0988 95.1795 49.0002 95.4654 47.883 95.4654C46.7658 95.4654 45.6672 95.1795 44.6918 94.635L13.1805 76.9725L13.104 77.4578L44.6903 95.1653C45.6657 95.7098 46.7643 95.9956 47.8815 95.9956C48.9987 95.9956 50.0973 95.7098 51.0728 95.1653L82.9328 77.4578L82.8503 76.9553L51.0728 94.6365L51.0743 94.635Z" fill="#A52714"/>
</svg>
