<svg width="96" height="96" viewBox="0 0 96 96" fill="none" xmlns="http://www.w3.org/2000/svg">
<path d="M93.5528 43.7835L52.2158 2.448C49.8368 0.0675032 45.9758 0.0675032 43.593 2.448L35.01 11.0325L45.8985 21.921C48.4298 21.0668 51.3308 21.6398 53.3475 23.6565C55.3748 25.686 55.9433 28.6118 55.068 31.1513L65.562 41.646C68.1008 40.7708 71.031 41.3363 73.0575 43.3673C75.8925 46.2 75.8925 50.7923 73.0575 53.6265C72.3838 54.3005 71.5839 54.8352 70.7035 55.2C69.8231 55.5648 68.8794 55.7526 67.9264 55.7526C66.9734 55.7526 66.0297 55.5648 65.1493 55.2C64.2689 54.8352 63.469 54.3005 62.7953 53.6265C61.7833 52.6135 61.0935 51.3239 60.8126 49.9199C60.5317 48.5159 60.6722 47.0601 61.2165 45.7358L51.4305 35.9498L51.429 61.7055C52.1391 62.0551 52.7873 62.5181 53.3483 63.0765C56.1818 65.9092 56.1818 70.5 53.3483 73.3388C50.514 76.1715 45.9203 76.1715 43.089 73.3388C40.2555 70.5008 40.2555 65.91 43.089 63.0765C43.7685 62.3973 44.5758 61.8595 45.4643 61.494V35.4998C44.5748 35.1358 43.7672 34.5975 43.089 33.9165C40.9425 31.7715 40.4258 28.6215 41.5268 25.9845L30.792 15.2498L2.44801 43.5923C1.3045 44.7361 0.662109 46.2873 0.662109 47.9048C0.662109 49.5222 1.3045 51.0734 2.44801 52.2173L43.7858 93.5527C46.1663 95.9333 50.0258 95.9333 52.41 93.5527L93.5535 52.4093C94.6968 51.2651 95.3389 49.7137 95.3388 48.0962C95.3386 46.4787 94.6962 44.9275 93.5528 43.7835Z" fill="#F34F29"/>
</svg>
