<svg width="96" height="90" viewBox="0 0 96 90" fill="none" xmlns="http://www.w3.org/2000/svg">
<path d="M42.572 0.735996C41.364 1.004 38.86 1.896 37.028 2.748C28.36 6.948 23.088 16.828 24.428 26.344C25.0801 31.2407 27.2887 35.7981 30.728 39.344C35.24 44.04 40.604 46.272 47.264 46.32C53.832 46.32 59.24 44.04 63.796 39.348C77.56 25 68.22 1.452 48.38 0.467996C46.412 0.379996 43.82 0.467996 42.572 0.735996ZM55.08 9.68C58.7 11.02 62.944 15.176 63.792 18.26C64.644 21.432 64.192 25.54 62.632 28.448C59.192 34.748 51.368 39.352 46.676 37.832C44.532 37.116 41.676 33.856 40.108 30.412C36.72 22.856 35.6 16.332 37.164 13.292C39.532 8.692 48.024 6.992 55.084 9.676L55.08 9.68ZM16.428 44.44C5.07599 48.104 -1.62401 58.832 0.339992 70.36C2.25999 81.8 13.032 90.336 24.472 89.44C32.604 88.86 39.532 84.48 43.196 77.6C45.208 73.76 45.92 70.896 45.92 66.34C45.92 58.16 42.036 51.144 34.972 46.764C30.012 43.636 21.972 42.652 16.428 44.444V44.44ZM26.172 51.636C37.12 53.424 43.06 62.584 38.772 71.164C37.028 74.604 33.364 78.092 29.612 79.88C27.064 81.04 26.26 81.22 23.892 81.04C19.78 80.772 17.948 79.12 15.712 73.532C13.032 66.964 11.912 59.1 13.256 56.552C14.908 53.468 17.724 51.904 22.908 51.232C23.176 51.232 24.604 51.412 26.172 51.636ZM65.54 44.664C52.18 49.356 46.192 64.192 52.448 76.972C54.188 80.548 58.3 84.748 61.968 86.672C71.392 91.632 81.584 90.156 89.088 82.692C101.288 70.628 96.688 50.384 80.376 44.664C76.22 43.192 69.696 43.192 65.54 44.664ZM79.216 52.576C83.952 54.096 88.688 58.516 89.76 62.496C90.476 65.132 90.072 68.932 88.868 71.432C86.676 75.948 81.228 80.012 75.864 81.084C68.624 82.516 64.916 77.556 63.264 64.324C62.276 56.328 64.464 52.664 70.904 51.684C73.584 51.28 75.904 51.5 79.216 52.576Z" fill="black"/>
</svg>
