<svg width="96" height="96" viewBox="0 0 96 96" fill="none" xmlns="http://www.w3.org/2000/svg">
<mask id="mask0_69_432" style="mask-type:luminance" maskUnits="userSpaceOnUse" x="0" y="0" width="96" height="96">
<path d="M48 96C74.5097 96 96 74.5097 96 48C96 21.4903 74.5097 0 48 0C21.4903 0 0 21.4903 0 48C0 74.5097 21.4903 96 48 96Z" fill="white"/>
</mask>
<g mask="url(#mask0_69_432)">
<path d="M48 96C74.5097 96 96 74.5097 96 48C96 21.4903 74.5097 0 48 0C21.4903 0 0 21.4903 0 48C0 74.5097 21.4903 96 48 96Z" fill="black"/>
<path d="M79.7378 84.0105L36.8757 28.8H28.8V67.1839H35.2605V37.005L74.6663 87.9173C76.4419 86.7293 78.1361 85.4242 79.7378 84.0105Z" fill="url(#paint0_linear_69_432)"/>
<path d="M61.3335 28.8H67.7336V67.2H61.3335V28.8Z" fill="url(#paint1_linear_69_432)"/>
</g>
<defs>
<linearGradient id="paint0_linear_69_432" x1="2862.62" y1="3362.13" x2="4563.64" y2="5470.46" gradientUnits="userSpaceOnUse">
<stop stop-color="white"/>
<stop offset="1" stop-color="white" stop-opacity="0"/>
</linearGradient>
<linearGradient id="paint1_linear_69_432" x1="381.34" y1="28.8" x2="370.511" y2="2848.78" gradientUnits="userSpaceOnUse">
<stop stop-color="white"/>
<stop offset="1" stop-color="white" stop-opacity="0"/>
</linearGradient>
</defs>
</svg>
