<svg width="96" height="96" viewBox="0 0 96 96" fill="none" xmlns="http://www.w3.org/2000/svg">
<path d="M28.4738 5.2005C26.8838 5.2545 25.3687 5.6415 24 6.4305C21.264 8.01 19.6305 10.908 18.8962 14.3378C18.1628 17.7683 18.24 21.8475 18.9713 26.4128C19.2533 28.173 19.6658 30.024 20.1427 31.9163C18.2655 32.4488 16.4558 33.0188 14.7908 33.6548C10.4708 35.3048 6.90075 37.2773 4.29675 39.6285C1.69275 41.9798 0 44.841 0 48C0 51.159 1.692 54.0225 4.29675 56.373C6.9 58.725 10.47 60.6975 14.79 62.3475C16.455 62.9835 18.2648 63.552 20.142 64.0853C19.665 65.9775 19.2525 67.8285 18.9705 69.588C18.2393 74.1555 18.1635 78.2333 18.897 81.663C19.632 85.0943 21.2633 87.9915 23.9993 89.571C26.7353 91.1505 30.0592 91.116 33.3975 90.036C36.735 88.956 40.23 86.8508 43.8187 83.934C45.2017 82.8105 46.599 81.5295 48 80.169C49.3995 81.5295 50.7975 82.8105 52.1805 83.934C55.7685 86.8515 59.262 88.9568 62.6003 90.0368C65.9378 91.1168 69.264 91.1505 72 89.5718C74.736 87.9915 76.3695 85.0943 77.1038 81.6638C77.8372 78.2333 77.7585 74.1548 77.0273 69.5888C76.7453 67.8285 76.3343 65.9775 75.8572 64.0853C77.7345 63.5528 79.5443 62.9827 81.2093 62.3475C85.5293 60.6983 89.0993 58.725 91.7033 56.3738C94.3073 54.0225 96 51.159 96 48C96 44.841 94.308 41.979 91.7033 39.6285C89.0993 37.278 85.5293 35.304 81.2093 33.6548C79.5443 33.0195 77.736 32.4488 75.8587 31.9163C76.3357 30.024 76.7467 28.1723 77.0287 26.4128C77.76 21.8475 77.8358 17.7683 77.1022 14.3378C76.3688 10.9073 74.7367 8.01 72 6.4305C69.2633 4.851 65.94 4.8855 62.6018 5.9655C59.2643 7.0455 55.7692 9.1515 52.1805 12.0675C50.7975 13.1925 49.398 14.4735 47.9977 15.834C46.5975 14.4743 45.2002 13.1918 43.8172 12.0675C40.23 9.1515 36.738 7.044 33.4005 5.964C31.731 5.424 30.0645 5.1465 28.473 5.199L28.4738 5.2005ZM28.6658 9.35925C29.6632 9.33075 30.8062 9.5145 32.1157 9.93675C34.7332 10.7843 37.872 12.6143 41.1855 15.3068C42.462 16.3433 43.7677 17.5433 45.0833 18.8243C42.3353 21.7943 39.6097 25.1715 36.9728 28.8998C32.4255 29.3198 28.1378 29.9918 24.1905 30.8872C23.7405 29.1068 23.3535 27.3773 23.0933 25.752C22.4183 21.537 22.4032 17.9033 22.9792 15.2123C23.5545 12.522 24.6308 10.887 26.0872 10.0463C26.8155 9.62625 27.6683 9.38625 28.6658 9.35925ZM67.335 9.35925C68.3325 9.387 69.1852 9.6255 69.9135 10.0463C71.37 10.8863 72.4463 12.5213 73.0215 15.2115C73.5967 17.9018 73.584 21.5363 72.909 25.752C72.6488 27.3758 72.2625 29.1075 71.8118 30.8865C67.8652 29.9918 63.5768 29.319 59.028 28.8998C56.391 25.1723 53.664 21.7943 50.916 18.8235C52.2315 17.5433 53.5387 16.3425 54.8152 15.306C58.1287 12.612 61.2675 10.785 63.8857 9.9375C65.1945 9.5145 66.3382 9.3315 67.3357 9.36L67.335 9.35925ZM48 21.8265C49.9636 23.9696 51.8256 26.2035 53.58 28.521C51.747 28.4385 49.8923 28.383 48 28.383C46.1085 28.383 44.2537 28.4378 42.42 28.521C44.1735 26.2028 46.0356 23.9688 48 21.8265ZM48 32.5575C50.9888 32.5575 53.9025 32.6752 56.7255 32.8875C58.3672 35.2917 59.9181 37.7567 61.3747 40.2773C62.8295 42.7996 64.1889 45.3756 65.4502 48C64.1889 50.6239 62.8295 53.1994 61.3747 55.7213C59.9179 58.2426 58.3668 60.7084 56.7248 63.1133C53.9025 63.3255 50.9888 63.444 48.0007 63.444C45.0881 63.4434 42.1766 63.3333 39.2722 63.114C37.631 60.7088 36.0806 58.2428 34.6245 55.7213C33.1698 53.1999 31.8104 50.6249 30.549 48.0015C31.8108 45.3771 33.1708 42.801 34.626 40.2788C36.0829 37.7576 37.634 35.2921 39.276 32.8875C42.1791 32.6683 45.0886 32.5582 48 32.5575ZM33.9202 33.4298C32.9144 34.995 31.9441 36.5829 31.0103 38.1923C30.0833 39.8053 29.1931 41.4393 28.3402 43.0928C27.21 40.4148 26.2059 37.6853 25.3313 34.9132C28.0238 34.3132 30.8903 33.8108 33.9202 33.4298ZM62.0805 33.4298C64.9651 33.7897 67.8313 34.2848 70.6695 34.9132C69.7949 37.6858 68.7908 40.4158 67.6605 43.0942C66.8077 41.44 65.9175 39.8053 64.9905 38.1915C64.0566 36.5822 63.0864 34.9943 62.0805 33.429V33.4298ZM21.2738 35.9355C22.4722 39.801 24.0345 43.851 25.9463 47.9985C24.0338 52.1475 22.4737 56.199 21.2738 60.0645C19.5075 59.5658 17.8162 59.034 16.2787 58.4475C12.2895 56.925 9.13575 55.119 7.09275 53.274C5.0505 51.4305 4.173 49.6815 4.173 47.9993C4.173 46.3178 5.0505 44.5703 7.09275 42.7268C9.13575 40.8818 12.2902 39.0765 16.2787 37.554C17.8162 36.9667 19.5075 36.4342 21.2738 35.9347V35.9355ZM74.7262 35.9355C76.4932 36.435 78.1852 36.9675 79.7213 37.5555C83.7113 39.078 86.865 40.8825 88.908 42.7268C90.9502 44.5718 91.8277 46.3193 91.8277 48C91.8277 49.6823 90.9502 51.4313 88.908 53.2747C86.865 55.1198 83.7105 56.9243 79.722 58.4475C78.1845 59.034 76.4918 59.565 74.7255 60.0645C73.527 56.1998 71.9655 52.1497 70.0553 48.0015C71.967 43.8525 73.527 39.8018 74.7262 35.9355ZM48 39.444C45.7309 39.4444 43.5549 40.346 41.9504 41.9504C40.346 43.5549 39.4444 45.7309 39.444 48C39.4444 50.2692 40.3461 52.4453 41.9507 54.0498C43.5553 55.6543 45.7315 56.5558 48.0007 56.556C50.2698 56.5556 52.4458 55.654 54.0503 54.0496C55.6548 52.4451 56.5564 50.2691 56.5567 48C56.5564 45.7308 55.6547 43.5547 54.05 41.9502C52.4454 40.3457 50.2692 39.4442 48 39.444ZM67.6605 52.9072C68.7903 55.5857 69.7939 58.3157 70.668 61.0882C67.977 61.6883 65.1105 62.1915 62.082 62.5733C63.0872 61.0072 64.0567 59.4185 64.9897 57.8085C65.9167 56.1952 66.8077 54.561 67.6605 52.9072ZM28.3402 52.9087C29.1931 54.562 30.0833 56.1957 31.0103 57.8085C31.9445 59.4181 32.9148 61.0065 33.9202 62.5725C31.0355 62.2134 28.1693 61.7181 25.3313 61.0882C26.2059 58.3162 27.21 55.5867 28.3402 52.9087ZM24.189 65.115C28.1355 66.009 32.424 66.6803 36.9728 67.0995C39.6097 70.8293 42.3368 74.2073 45.0847 77.1795C43.7692 78.4583 42.4635 79.6583 41.187 80.697C37.8735 83.3895 34.7318 85.2195 32.1135 86.067C29.496 86.913 27.5422 86.7968 26.0857 85.956C24.6292 85.1145 23.5545 83.481 22.9792 80.7908C22.4032 78.0998 22.4175 74.466 23.0933 70.2488C23.3535 68.625 23.7382 66.894 24.189 65.115ZM71.8102 65.115C72.2603 66.894 72.6472 68.625 72.9075 70.2488C73.5825 74.466 73.5975 78.0998 73.0215 80.7908C72.4463 83.4818 71.37 85.116 69.9135 85.9583C68.457 86.7983 66.504 86.913 63.8857 86.0655C61.2675 85.218 58.1287 83.388 54.8152 80.6955C53.5395 79.6583 52.2323 78.4583 50.9175 77.178C53.6655 74.208 56.391 70.8285 59.028 67.0995C63.5753 66.6803 67.863 66.009 71.8102 65.115ZM42.42 67.479C44.279 67.5677 46.1397 67.6142 48.0007 67.6185C49.8621 67.6142 51.723 67.5677 53.5823 67.479C51.8283 69.7982 49.9658 72.0332 48.0007 74.1765C46.0362 72.0332 44.1734 69.7982 42.42 67.479Z" fill="#61DAFB"/>
</svg>
